<svg class="svg-icon" style="width: 1em; height: 1em;vertical-align: middle;fill: currentColor;overflow: hidden;" viewBox="0 0 1024 1024" version="1.1" xmlns="http://www.w3.org/2000/svg"><path d="M508.439406 110.094444c222.762503 0 404.007427 181.244924 404.007427 404.03301 0 222.762503-181.243901 404.03301-404.007427 404.03301-222.762503 0-404.004357-181.270507-404.004357-404.03301C104.435049 291.339368 285.676903 110.094444 508.439406 110.094444M508.439406 65.197908c-247.933789 0-448.929546 200.970174-448.929546 448.929546 0 247.960395 200.995757 448.929546 448.929546 448.929546 247.933789 0 448.929546-200.970174 448.929546-448.929546C957.368952 266.168082 756.373195 65.197908 508.439406 65.197908L508.439406 65.197908 508.439406 65.197908zM382.075417 285.022499c27.077705-5.132904 44.821835 25.427112 58.335616 46.49494 13.20372 20.476357 29.398564 44.485167 22.847357 71.125921-3.663436 14.957667-17.174148 23.107277-27.387767 31.92613-10.058077 8.718569-25.427112 16.711614-29.141714 30.096459-6.084579 21.688975 7.222495 44.485167 15.47546 57.455573 18.721387 29.297256 41.313941 55.731302 70.196759 79.326696 14.029528 11.449773 33.42118 26.717502 52.919257 22.799262 29.03529-5.880941 36.721343-41.727357 68.390623-46.524616 30.121018-4.53734 50.495044 17.304108 67.463508 31.925107 16.400528 14.184047 42.860157 32.313963 41.054021 56.582693-1.031493 13.925151-12.222369 22.565948-21.919219 30.996968-9.850345 8.588609-18.517749 18.232247-28.212552 24.601304-23.622 15.397688-52.555983 22.928199-85.772502 21.895683-32.547277-1.00591-58.540278-12.06785-82.060971-24.62791-46.0058-24.549116-82.420151-59.08263-116.666116-97.584526-33.733289-37.857213-64.885799-82.653465-82.112136-132.192741-21.455661-61.867046-10.109242-125.410268 24.653493-165.048033 5.879917-6.731308 15.164375-13.770632 23.725354-20.993127C362.320491 296.03225 370.162086 287.264563 382.075417 285.022499L382.075417 285.022499zM382.075417 285.022499"  /></svg>